<svg xmlns="http://www.w3.org/2000/svg" viewBox="0 0 24 24" role="img" aria-label="Apple">
  <path fill="#ffffff" d="M17.05 12.5c-.02-2.05 1.68-3.04 1.76-3.09-.96-1.4-2.46-1.6-2.99-1.62-1.27-.13-2.48.75-3.12.75-.64 0-1.64-.73-2.7-.71-1.39.02-2.67.81-3.38 2.05-1.44 2.5-.37 6.2 1.03 8.24.69.99 1.5 2.1 2.57 2.06 1.03-.04 1.42-.66 2.67-.66 1.24 0 1.6.66 2.69.64 1.11-.02 1.81-1.01 2.49-2 .78-1.15 1.1-2.26 1.12-2.32-.02-.01-2.15-.83-2.17-3.28zM15.01 6.19c.57-.69.95-1.65.85-2.61-.82.03-1.81.55-2.4 1.24-.53.6-.99 1.59-.87 2.53.91.07 1.85-.47 2.42-1.16z"/>
</svg>
